<svg width="22" height="18" viewBox="0 0 22 18" fill="none" xmlns="http://www.w3.org/2000/svg">
<path d="M20.9684 3.54354C20.8795 3.1986 20.7098 2.87975 20.4734 2.6133C20.237 2.34686 19.9406 2.14044 19.6087 2.0111C16.3959 0.77651 11.2793 0.786822 11 0.788322C10.7208 0.786072 5.60422 0.77651 2.39141 2.0111C2.05949 2.14042 1.76309 2.34681 1.52665 2.61325C1.29021 2.87968 1.12051 3.19852 1.03156 3.54345C0.789031 4.47448 0.5 6.17689 0.5 9.00007C0.5 11.8233 0.789031 13.5256 1.03156 14.4566C1.12049 14.8015 1.29017 15.1204 1.52659 15.3868C1.76301 15.6533 2.05941 15.8597 2.39131 15.989C5.46688 17.1709 10.2871 17.212 10.9382 17.212H11.0618C11.7133 17.212 16.5332 17.1708 19.6086 15.989C19.9405 15.8597 20.2369 15.6533 20.4734 15.3869C20.7098 15.1205 20.8795 14.8016 20.9684 14.4567C21.211 13.5257 21.5 11.8233 21.5 9.00007C21.5 6.17689 21.211 4.47457 20.9684 3.54354ZM14.208 9.31207L9.70803 12.3121C9.65156 12.3497 9.58592 12.3713 9.51813 12.3746C9.45033 12.3779 9.38291 12.3627 9.32307 12.3307C9.26322 12.2987 9.21319 12.251 9.17831 12.1928C9.14342 12.1346 9.125 12.0679 9.125 12.0001V6.00007C9.125 5.9322 9.14342 5.86559 9.17831 5.80737C9.21319 5.74914 9.26322 5.70147 9.32307 5.66944C9.38291 5.63742 9.45033 5.62224 9.51813 5.62552C9.58592 5.6288 9.65156 5.65042 9.70803 5.68807L14.208 8.68807C14.2594 8.72232 14.3015 8.76871 14.3306 8.82314C14.3598 8.87757 14.375 8.93834 14.375 9.00007C14.375 9.0618 14.3598 9.12258 14.3306 9.177C14.3015 9.23143 14.2594 9.27783 14.208 9.31207Z" fill="#EBEBF5" fill-opacity="0.6"/>
</svg>
